<?xml version="1.0" encoding="UTF-8"?>
<svg width="512" height="512" viewBox="0 0 512 512" fill="none" xmlns="http://www.w3.org/2000/svg">
  <style>
    @keyframes rotateGradient {
      0% { transform: rotate(0deg); }
      100% { transform: rotate(360deg); }
    }
    @keyframes pulseOpacity {
      0% { opacity: 0.7; }
      50% { opacity: 0.9; }
      100% { opacity: 0.7; }
    }
    @keyframes shimmer {
      0% { stroke-dashoffset: 0; }
      100% { stroke-dashoffset: -30; }
    }
    #aurora-group {
      animation: pulseOpacity 8s ease infinite;
    }
    #gradient-rotator {
      transform-origin: center;
      animation: rotateGradient 30s linear infinite;
    }
    .shimmer-path {
      stroke-dasharray: 15;
      animation: shimmer 3s linear infinite;
    }
  </style>

  <!-- Background Circle -->
  <circle cx="256" cy="256" r="240" fill="url(#gradient-bg)" />
  
  <g id="gradient-rotator">
    <!-- Reflective Surface -->
    <path d="M256 16C384 16 480 112 480 240C480 368 384 464 256 464C128 464 32 368 32 240C32 112 128 16 256 16Z" 
          fill="url(#gradient-surface)" />
    
    <!-- Aurora Effect -->
    <g id="aurora-group">
      <path d="M256 64C384 64 448 128 448 256C448 384 384 448 256 448C128 448 64 384 64 256C64 128 128 64 256 64Z" 
            fill="url(#gradient-aurora)" />
    </g>
  </g>
  
  <!-- Inner Circle -->
  <circle cx="256" cy="256" r="160" fill="url(#gradient-inner)" />
  
  <!-- Letter A with Shimmer -->
  <path d="M256 96L384 384H128L256 96Z" 
        fill="white" 
        fill-opacity="0.95" />
  <path class="shimmer-path"
        d="M256 96L384 384H128L256 96Z" 
        stroke="url(#gradient-shimmer)"
        stroke-width="2"
        fill="none" />
  
  <!-- Gradients -->
  <defs>
    <!-- Background Gradient -->
    <radialGradient id="gradient-bg" cx="0.5" cy="0.5" r="0.5" gradientUnits="userSpaceOnUse">
      <stop offset="0%" stop-color="#1a1a1a" />
      <stop offset="100%" stop-color="#0a0a0a" />
    </radialGradient>
    
    <!-- Surface Gradient -->
    <linearGradient id="gradient-surface" x1="0" y1="0" x2="512" y2="512" gradientUnits="userSpaceOnUse">
      <stop offset="0%" stop-color="#8B8BFF" stop-opacity="0.2" />
      <stop offset="25%" stop-color="#F4CAA9" stop-opacity="0.15" />
      <stop offset="50%" stop-color="#BFB9FF" stop-opacity="0.2" />
      <stop offset="75%" stop-color="#F4CAA9" stop-opacity="0.15" />
      <stop offset="100%" stop-color="#8B8BFF" stop-opacity="0.2" />
    </linearGradient>
    
    <!-- Aurora Gradient -->
    <linearGradient id="gradient-aurora" x1="0" y1="0" x2="512" y2="512" gradientUnits="userSpaceOnUse">
      <stop offset="0%" stop-color="#8B8BFF" stop-opacity="0.3" />
      <stop offset="25%" stop-color="#F4CAA9" stop-opacity="0.25" />
      <stop offset="50%" stop-color="#BFB9FF" stop-opacity="0.3" />
      <stop offset="75%" stop-color="#F4CAA9" stop-opacity="0.25" />
      <stop offset="100%" stop-color="#8B8BFF" stop-opacity="0.3" />
    </linearGradient>
    
    <!-- Inner Gradient -->
    <radialGradient id="gradient-inner" cx="0.5" cy="0.5" r="0.5" gradientUnits="userSpaceOnUse">
      <stop offset="0%" stop-color="#ffffff" stop-opacity="0.15" />
      <stop offset="100%" stop-color="#ffffff" stop-opacity="0" />
    </radialGradient>

    <!-- Shimmer Gradient -->
    <linearGradient id="gradient-shimmer" x1="0" y1="0" x2="1" y2="1" gradientUnits="userSpaceOnUse">
      <stop offset="0%" stop-color="#ffffff" stop-opacity="0.6" />
      <stop offset="50%" stop-color="#ffffff" stop-opacity="0.2" />
      <stop offset="100%" stop-color="#ffffff" stop-opacity="0.6" />
    </linearGradient>
  </defs>
</svg> 